<svg width="128" height="126" viewBox="0 0 128 126" fill="none" xmlns="http://www.w3.org/2000/svg">
<path d="M22.6667 0.350006H105.333C117.867 0.350006 128 10.4833 128 23.0167V102.483C128 115.017 117.867 125.15 105.333 125.15H22.6667C10.1333 125.15 0 115.017 0 102.483V23.0167C0 10.4833 10.1333 0.350006 22.6667 0.350006Z" fill="#330000"/>
<path d="M62.0267 75.2299H42.1867L38.1333 87.7632C38.0267 88.2432 37.6 88.5632 37.12 88.5099H27.0933C26.5067 88.5099 26.3467 88.1899 26.5067 87.5499L43.68 38.1099C43.84 37.5766 44 36.9899 44.2133 36.3499C44.4267 35.2299 44.5333 34.0566 44.5333 32.8832C44.48 32.6166 44.6933 32.3499 44.96 32.2966C45.0133 32.2966 45.0667 32.2966 45.12 32.2966H58.7733C59.2 32.2966 59.4133 32.4566 59.4667 32.7232L78.9333 87.6566C79.0933 88.2432 78.9333 88.5099 78.4 88.5099H67.2533C66.88 88.5632 66.5067 88.2966 66.4 87.9232L62.0267 75.2299ZM45.28 64.4032H58.8267C58.5067 63.2832 58.08 61.9499 57.6 60.5632C57.12 59.1232 56.64 57.5766 56.16 55.9766C55.6267 54.3232 55.1467 52.7232 54.6133 51.0699C54.08 49.4166 53.6 47.8699 53.1733 46.3232C52.7467 44.8299 52.3733 43.4432 52 42.1632H51.8933C51.4133 44.4566 50.8267 46.7499 50.08 49.0432C49.28 51.6032 48.48 54.2699 47.6267 56.9366C46.88 59.6566 46.08 62.1632 45.28 64.4032Z" fill="#FF9A00"/>
<path d="M90.5599 41.4167C88.7999 41.47 87.0932 40.7767 85.8132 39.55C84.5866 38.2167 83.9466 36.4567 83.9999 34.6433C83.9466 32.83 84.6399 31.1233 85.9199 29.8967C87.1999 28.67 88.9066 28.03 90.6666 28.03C92.7466 28.03 94.3466 28.67 95.5199 29.8967C96.6932 31.1767 97.3332 32.8833 97.2799 34.6433C97.3332 36.4567 96.6932 38.2167 95.4132 39.55C94.1866 40.83 92.3732 41.5233 90.5599 41.4167ZM84.5866 87.71V46.6433C84.5866 46.11 84.7999 45.8967 85.2799 45.8967H95.8399C96.3199 45.8967 96.5332 46.1633 96.5332 46.6433V87.71C96.5332 88.2967 96.3199 88.5633 95.8399 88.5633H85.3866C84.8532 88.5633 84.5866 88.2433 84.5866 87.71Z" fill="#FF9A00"/>
</svg>
