<svg width="128" height="128" viewBox="0 0 128 128" fill="none" xmlns="http://www.w3.org/2000/svg">
<g clip-path="url(#clip0_1902_2)">
<path d="M64 0C99.3493 0 128 28.656 128 64C128 99.344 99.3493 128 64 128C28.656 128 0 99.344 0 64C0 28.656 28.656 0 64 0ZM59.0933 102.816L85.9413 58.1387C86.2662 57.732 86.448 57.2297 86.4587 56.7093C86.4587 56.0657 86.203 55.4485 85.7479 54.9934C85.2928 54.5383 84.6756 54.2827 84.032 54.2827L68.8267 54.304L73.7547 25.1413L68.8107 25.1253L42.048 69.7493C42.048 69.7493 41.5147 70.7253 41.5147 71.3013C41.5147 72.64 42.6027 73.728 43.9413 73.728L59.04 73.7067L54.2347 102.816H59.0933Z" fill="#005AF0"/>
</g>
<defs>
<clipPath id="clip0_1902_2">
<rect width="128" height="128" fill="white"/>
</clipPath>
</defs>
</svg>
