<svg width="173" height="128" viewBox="0 0 173 128" fill="none" xmlns="http://www.w3.org/2000/svg">
<path d="M0.0365282 20.8713C1.34407 9.3828 10.8098 0.532904 22.3613 0.000592354L120.703 0C124.228 0.291275 127.645 1.36192 130.706 3.13459C133.768 4.90726 136.397 7.33771 138.405 10.2504C140.214 12.9036 141.49 15.8831 142.163 19.0232L171.064 4.69257C171.247 4.60124 171.45 4.55506 171.654 4.55787C171.859 4.56069 172.06 4.61243 172.241 4.70877C172.422 4.80512 172.577 4.94328 172.694 5.11173C172.81 5.28019 172.885 5.47407 172.911 5.67721V21.9277L172.912 21.9842C172.912 22.5175 172.753 23.0389 172.456 23.4818C172.159 23.9247 171.737 24.2693 171.243 24.4716C144.645 37.6624 118.053 50.8645 91.467 64.0779L171.063 103.456C171.572 103.632 172.017 103.954 172.346 104.38C172.674 104.806 172.871 105.319 172.911 105.856V122.14C172.911 122.387 172.843 122.628 172.713 122.838C172.584 123.048 172.399 123.218 172.178 123.329C171.958 123.44 171.711 123.488 171.465 123.467C171.22 123.446 170.984 123.358 170.786 123.211C161.305 118.41 151.691 113.886 142.281 108.989C141.652 111.264 140.809 113.475 139.763 115.591C138.168 118.524 135.979 121.092 133.336 123.131C130.693 125.17 127.654 126.636 124.412 127.434C122.243 127.89 120.026 128.072 117.812 127.975L26.1527 127.976C24.0882 127.976 22.0119 127.976 19.9591 127.82C9.31933 126.229 1.10821 117.607 0.037704 106.901V91.1552C0.124219 90.4985 0.395804 89.8799 0.820746 89.3717C1.24569 88.8636 1.80644 88.4868 2.43752 88.2855C18.7839 80.2084 35.0944 72.0591 51.4649 64.0179C34.9741 55.8088 18.4715 47.6235 1.95697 39.4622C1.39571 39.2142 0.918142 38.8091 0.581794 38.2959C0.245447 37.7826 0.0646669 37.1831 0.0612321 36.5695C0.0365281 31.3487 -0.0475828 26.1044 0.0365282 20.8713ZM18.2557 20.9795C17.2711 22.96 17.7275 25.2516 17.6434 27.3885C35.6467 36.2819 53.5171 45.2229 71.4839 54.0564C89.2384 45.2553 107.001 36.4536 124.771 27.6525C124.771 26.0562 124.844 24.4599 124.771 22.8517C124.564 21.4249 123.85 20.1205 122.759 19.1772C121.669 18.2338 120.275 17.7146 118.833 17.7145H118.771L23.74 17.7151C22.6076 17.6773 21.4882 17.9647 20.5141 18.5432C19.54 19.1217 18.752 19.9672 18.2433 20.9795H18.2557ZM17.6434 100.624C17.7269 102.784 17.2587 105.112 18.3033 107.117C18.8279 108.102 19.6168 108.922 20.5815 109.483C21.5461 110.045 22.6483 110.326 23.7641 110.296L118.855 110.297L118.903 110.297C121.031 110.297 122.997 109.156 124.052 107.308C125.251 105.208 124.7 102.688 124.819 100.383C107.021 91.5981 89.2454 82.6682 71.4109 73.9795C53.4742 82.8401 35.5477 91.7216 17.6316 100.624H17.6434Z" fill="black"/>
</svg>
