<svg width="128" height="128" viewBox="0 0 128 128" fill="none" xmlns="http://www.w3.org/2000/svg">
<g clip-path="url(#clip0_3508_30)">
<path d="M64 0C28.6541 0 0 28.6541 0 64C0 94.0134 20.6643 119.199 48.5402 126.116V83.5584H35.3434V64H48.5402V55.5725C48.5402 33.7894 58.3987 23.6928 79.785 23.6928C83.84 23.6928 90.8365 24.489 93.6986 25.2826V43.0106C92.1882 42.8518 89.5642 42.7725 86.3053 42.7725C75.8118 42.7725 71.7568 46.7482 71.7568 57.0829V64H92.6618L89.0701 83.5584H71.7568V127.532C103.447 123.704 128.003 96.7219 128.003 64C128 28.6541 99.3459 0 64 0Z" fill="white"/>
</g>
<defs>
<clipPath id="clip0_3508_30">
<rect width="128" height="128" fill="white"/>
</clipPath>
</defs>
</svg>
