<svg width="128" height="126" viewBox="0 0 128 126" fill="none" xmlns="http://www.w3.org/2000/svg">
<path d="M64.0002 0.345612C28.6584 0.345612 0 28.999 0 64.3459C0 92.6233 18.338 116.613 43.7674 125.076C46.9658 125.668 48.1404 123.688 48.1404 121.997C48.1404 120.471 48.0806 115.429 48.0535 110.081C30.2481 113.953 26.491 102.53 26.491 102.53C23.5798 95.1325 19.385 93.1659 19.385 93.1659C13.5786 89.1935 19.8227 89.2749 19.8227 89.2749C26.2496 89.7266 29.6337 95.8704 29.6337 95.8704C35.3418 105.655 44.6057 102.826 48.2578 101.191C48.832 97.054 50.491 94.231 52.321 92.6329C38.106 91.0141 23.1622 85.5263 23.1622 61.0034C23.1622 54.0164 25.6623 48.3068 29.7567 43.8249C29.0921 42.2127 26.9016 35.7035 30.3766 26.8879C30.3766 26.8879 35.7509 25.1677 47.9812 33.4482C53.086 32.0298 58.5612 31.319 64.0002 31.2949C69.4393 31.319 74.9185 32.0298 80.0333 33.4482C92.2491 25.1677 97.6159 26.8879 97.6159 26.8879C101.099 35.7035 98.9079 42.2127 98.2433 43.8249C102.347 48.3068 104.83 54.0159 104.83 61.0034C104.83 85.5846 89.8578 90.9975 75.6067 92.5816C77.9021 94.5678 79.9475 98.4629 79.9475 104.434C79.9475 112.997 79.8732 119.889 79.8732 121.997C79.8732 123.7 81.0251 125.696 84.2697 125.067C109.685 116.595 128 92.6138 128 64.3459C128 28.999 99.3456 0.345612 64.0002 0.345612Z" fill="white"/>
<path d="M23.9701 91.5156C23.8296 91.8333 23.3287 91.9287 22.8734 91.7108C22.4091 91.502 22.1481 91.0683 22.2987 90.7491C22.4367 90.4218 22.9376 90.3305 23.4009 90.5503C23.8662 90.7586 24.1313 91.1963 23.9701 91.5156V91.5156ZM27.1183 94.3244C26.8132 94.6075 26.2163 94.476 25.8113 94.0288C25.3927 93.5826 25.3144 92.9862 25.6241 92.6986C25.9388 92.416 26.5175 92.5481 26.9371 92.9948C27.3558 93.446 27.4371 94.0388 27.1178 94.3249L27.1183 94.3244ZM29.2782 97.9183C28.8857 98.1909 28.2442 97.9354 27.8482 97.3662C27.4561 96.7975 27.4561 96.1149 27.8567 95.8413C28.2542 95.5677 28.8857 95.8137 29.2872 96.3784C29.6788 96.9571 29.6788 97.6398 29.2777 97.9188L29.2782 97.9183ZM32.9303 102.081C32.5795 102.467 31.8326 102.364 31.2855 101.836C30.7263 101.32 30.5702 100.588 30.9221 100.201C31.2769 99.8132 32.0284 99.9221 32.5795 100.446C33.1351 100.961 33.3048 101.698 32.9309 102.081H32.9303ZM37.6506 103.486C37.4965 103.987 36.7767 104.215 36.0519 104.002C35.3281 103.783 34.8543 103.196 35.0004 102.689C35.1509 102.185 35.8737 101.947 36.6041 102.175C37.3269 102.394 37.8017 102.976 37.6511 103.486H37.6506ZM43.0234 104.082C43.0415 104.61 42.4266 105.048 41.6657 105.057C40.9002 105.074 40.2813 104.647 40.2733 104.128C40.2733 103.595 40.8741 103.161 41.6391 103.149C42.4 103.134 43.0234 103.558 43.0234 104.082V104.082ZM48.3009 103.88C48.3922 104.395 47.8632 104.924 47.1078 105.065C46.3649 105.2 45.6772 104.882 45.5823 104.372C45.49 103.844 46.0291 103.315 46.7704 103.178C47.5274 103.047 48.2045 103.356 48.3009 103.88" fill="white"/>
</svg>
