<svg width="128" height="128" viewBox="0 0 128 128" fill="none" xmlns="http://www.w3.org/2000/svg">
<path d="M128 0H0V128H128V0Z" fill="#F7DF1E"/>
<path d="M85.9833 100.001C88.5616 104.21 91.916 107.305 97.8487 107.305C102.833 107.305 106.016 104.814 106.016 101.372C106.016 97.2475 102.745 95.7867 97.2595 93.3872L94.2525 92.0971C85.5729 88.3993 79.8068 83.7669 79.8068 73.9739C79.8068 64.9529 86.6802 58.0856 97.422 58.0856C105.07 58.0856 110.567 60.7472 114.529 67.7161L105.163 73.7301C103.101 70.0323 100.876 68.5755 97.422 68.5755C93.899 68.5755 91.6661 70.8105 91.6661 73.7301C91.6661 77.3385 93.901 78.7993 99.0616 81.0342L102.069 82.3223C112.288 86.7048 118.058 91.1726 118.058 101.218C118.058 112.047 109.552 117.979 98.127 117.979C86.9565 117.979 79.7397 112.656 76.2086 105.679L85.9833 100.001ZM43.4934 101.043C45.3829 104.395 47.1018 107.23 51.2343 107.23C55.1861 107.23 57.679 105.683 57.679 99.6714V58.7724H69.707V99.8339C69.707 112.289 62.4049 117.957 51.7463 117.957C42.1159 117.957 36.5387 112.973 33.7024 106.97L43.4934 101.043Z" fill="black"/>
</svg>
