<svg width="128" height="128" viewBox="0 0 128 128" fill="none" xmlns="http://www.w3.org/2000/svg">
<g clip-path="url(#clip0_3508_27)">
<path d="M118.525 0H9.45C4.225 0 0 4.125 0 9.225V118.75C0 123.85 4.225 128 9.45 128H118.525C123.75 128 128 123.85 128 118.775V9.225C128 4.125 123.75 0 118.525 0ZM37.975 109.075H18.975V47.975H37.975V109.075ZM28.475 39.65C22.375 39.65 17.45 34.725 17.45 28.65C17.45 22.575 22.375 17.65 28.475 17.65C34.55 17.65 39.475 22.575 39.475 28.65C39.475 34.7 34.55 39.65 28.475 39.65ZM109.075 109.075H90.1V79.375C90.1 72.3 89.975 63.175 80.225 63.175C70.35 63.175 68.85 70.9 68.85 78.875V109.075H49.9V47.975H68.1V56.325H68.35C70.875 51.525 77.075 46.45 86.3 46.45C105.525 46.45 109.075 59.1 109.075 75.55V109.075V109.075Z" fill="white"/>
</g>
<defs>
<clipPath id="clip0_3508_27">
<rect width="128" height="128" fill="white"/>
</clipPath>
</defs>
</svg>
