<svg width="120" height="129" viewBox="0 0 120 129" fill="none" xmlns="http://www.w3.org/2000/svg">
<g clip-path="url(#clip0_1907_30)">
<path d="M104.428 21.6899L75.4627 5.02314C65.9857 -0.443584 54.3731 -0.443584 44.8961 5.02314L15.7974 21.6899C6.45385 27.1568 0.58075 37.29 0.58075 48.0901V81.5571C0.58075 92.4905 6.45385 102.491 15.7974 107.957L44.7625 124.757C54.2395 130.224 65.8524 130.224 75.3294 124.757L104.294 107.957C113.772 102.491 119.511 92.4905 119.511 81.5571V48.0901C119.778 37.29 113.905 27.1568 104.428 21.6899ZM60.1128 94.624C43.6945 94.624 30.3469 81.2905 30.3469 64.8903C30.3469 48.49 43.6945 35.1568 60.1128 35.1568C76.5307 35.1568 90.012 48.49 90.012 64.8903C90.012 81.2905 76.6643 94.624 60.1128 94.624Z" fill="#8B5CF6"/>
</g>
<defs>
<clipPath id="clip0_1907_30">
<rect width="118.857" height="128" fill="white" transform="translate(0.58075 0.923096)"/>
</clipPath>
</defs>
</svg>
