<svg width="128" height="128" viewBox="0 0 128 128" fill="none" xmlns="http://www.w3.org/2000/svg">
<g clip-path="url(#clip0_3508_25)">
<path d="M64 0C28.65 0 0 28.65 0 64C0 91.125 16.875 114.275 40.675 123.6C40.125 118.525 39.6 110.775 40.9 105.25C42.075 100.25 48.4 73.45 48.4 73.45C48.4 73.45 46.475 69.625 46.475 63.95C46.475 55.05 51.625 48.4 58.05 48.4C63.5 48.4 66.15 52.5 66.15 57.425C66.15 62.925 62.65 71.125 60.85 78.725C59.35 85.1 64.05 90.3 70.325 90.3C81.7 90.3 90.45 78.3 90.45 61C90.45 45.675 79.45 34.95 63.725 34.95C45.525 34.95 34.825 48.6 34.825 62.725C34.825 68.225 36.95 74.125 39.6 77.325C40.125 77.95 40.2 78.525 40.05 79.15C39.575 81.175 38.475 85.525 38.275 86.4C38 87.575 37.35 87.825 36.125 87.25C28.125 83.525 23.125 71.85 23.125 62.45C23.125 42.25 37.8 23.725 65.4 23.725C87.6 23.725 104.85 39.55 104.85 60.7C104.85 82.75 90.95 100.5 71.65 100.5C65.175 100.5 59.075 97.125 56.975 93.15C56.975 93.15 53.775 105.375 53 108.375C51.55 113.925 47.65 120.9 45.05 125.15C51.05 127 57.4 128 64 128C99.35 128 128 99.35 128 64C128 28.65 99.35 0 64 0Z" fill="white"/>
</g>
<defs>
<clipPath id="clip0_3508_25">
<rect width="128" height="128" fill="white"/>
</clipPath>
</defs>
</svg>
