<svg width="114" height="129" viewBox="0 0 114 129" fill="none" xmlns="http://www.w3.org/2000/svg">
<path d="M99.2896 25.5345C99.216 24.8593 98.6144 24.5586 98.1664 24.5586C97.7184 24.5586 87.8944 23.8098 87.8944 23.8098C87.8944 23.8098 81.072 16.9873 80.2464 16.3121C79.4976 15.5633 78.0704 15.7874 77.472 15.9378C77.3984 15.9378 75.9712 16.389 73.648 17.1378C71.3248 10.4626 67.3504 4.38895 60.2272 4.38895H59.552C57.5968 1.83855 55.0496 0.63855 52.9504 0.63855C36.4544 0.63855 28.5056 21.2594 26.032 31.7586C19.584 33.7842 15.008 35.1314 14.4832 35.3586C10.8832 36.4818 10.8096 36.5585 10.3584 39.9313C9.98401 42.4817 0.611206 114.991 0.611206 114.991L73.5712 128.639L113.165 120.091C113.238 119.941 99.3664 26.2097 99.2896 25.5345ZM69.5968 18.1841C67.7984 18.7089 65.6224 19.3842 63.4496 20.133V18.7857C63.4496 14.7377 62.9248 11.4385 61.9488 8.81135C65.696 9.26255 68.0224 13.3873 69.5968 18.1841ZM57.3728 9.63695C58.3488 12.1873 59.024 15.7873 59.024 20.7345V21.4833C54.976 22.7569 50.7008 24.0337 46.2752 25.4577C48.7488 16.0113 53.4752 11.3617 57.3728 9.63695ZM52.5728 4.98735C53.3216 4.98735 54.0736 5.28815 54.672 5.73615C49.3472 8.20975 43.7248 14.4338 41.3984 27.0322C37.8752 28.1554 34.4992 29.1314 31.2768 30.181C33.9776 20.5842 40.7264 4.98735 52.5728 4.98735Z" fill="#7CB342"/>
<path d="M98.1664 24.4081C97.7152 24.4081 87.8944 23.6592 87.8944 23.6592C87.8944 23.6592 81.072 16.8368 80.2464 16.1616C79.9424 15.8608 79.568 15.7104 79.2704 15.7104L73.7952 128.638L113.389 120.091C113.389 120.091 99.5168 26.2096 99.44 25.5344C99.1392 24.8592 98.6144 24.5585 98.1664 24.4081Z" fill="#558B2F"/>
<path d="M59.5326 47.3364L54.8126 61.5732C54.8126 61.5732 50.5342 59.2852 45.4462 59.2852C37.8494 59.2852 37.4814 64.0788 37.4814 65.2596C37.4814 71.7492 54.4446 74.258 54.4446 89.5252C54.4446 101.548 46.8478 109.292 36.595 109.292C24.2046 109.292 18.0094 101.621 18.0094 101.621L21.3278 90.706C21.3278 90.706 27.8174 96.3124 33.2766 96.3124C36.8894 96.3124 38.3646 93.5092 38.3646 91.4452C38.3646 82.962 24.499 82.594 24.499 68.5812C24.499 56.8532 32.9086 45.4964 49.9454 45.4964C56.2846 45.4196 59.5326 47.3364 59.5326 47.3364Z" fill="white"/>
</svg>
