<svg width="128" height="128" viewBox="0 0 128 128" fill="none" xmlns="http://www.w3.org/2000/svg">
<path d="M94.358 59.3255C93.8066 59.0613 93.2466 58.8069 92.6793 58.5634C91.6913 40.3588 81.744 29.9367 65.0412 29.83C64.9656 29.8295 64.8903 29.8295 64.8146 29.8295C54.8242 29.8295 46.5154 34.0939 41.4013 41.8538L50.5873 48.1552C54.4077 42.3589 60.4034 41.1232 64.819 41.1232C64.87 41.1232 64.9212 41.1232 64.9717 41.1237C70.4713 41.1587 74.6213 42.7577 77.3073 45.876C79.262 48.1462 80.5693 51.2833 81.2166 55.2425C76.3406 54.4138 71.0673 54.159 65.43 54.4822C49.5498 55.3969 39.3407 64.6586 40.0264 77.528C40.3743 84.056 43.6264 89.672 49.1833 93.3407C53.8816 96.442 59.9326 97.9587 66.2215 97.6153C74.5266 97.16 81.042 93.9913 85.5873 88.1973C89.0393 83.7973 91.2226 78.0953 92.1866 70.9107C96.1446 73.2993 99.078 76.4427 100.698 80.2213C103.453 86.6447 103.613 97.2 95.0006 105.805C87.4546 113.344 78.384 116.605 64.6756 116.706C49.4694 116.593 37.9692 111.717 30.492 102.211C23.4903 93.3107 19.8718 80.4547 19.7368 64C19.8718 47.5452 23.4903 34.6891 30.492 25.7885C37.9692 16.2833 49.4692 11.4067 64.6754 11.2937C79.992 11.4075 91.6926 16.3076 99.456 25.8587C103.263 30.5424 106.133 36.4325 108.025 43.3002L118.789 40.4281C116.496 31.9748 112.887 24.6905 107.977 18.6493C98.024 6.40445 83.468 0.130099 64.713 0H64.6379C45.921 0.129647 31.528 6.42787 21.8588 18.7195C13.2546 29.6576 8.81623 44.8771 8.66709 63.955L8.66663 64L8.66709 64.045C8.81623 83.1227 13.2546 98.3427 21.8588 109.281C31.528 121.572 45.921 127.871 64.6379 128H64.713C81.3533 127.885 93.0826 123.528 102.745 113.874C115.387 101.244 115.007 85.4127 110.84 75.694C107.851 68.7247 102.151 63.0641 94.358 59.3255ZM65.627 86.338C58.667 86.73 51.4362 83.606 51.0797 76.9147C50.8154 71.9533 54.6105 66.4173 66.0541 65.7579C67.3646 65.6823 68.6506 65.6453 69.914 65.6453C74.0706 65.6453 77.9593 66.0491 81.4946 66.822C80.176 83.29 72.4413 85.964 65.627 86.338Z" fill="white"/>
</svg>
