<svg width="128" height="128" viewBox="0 0 128 128" fill="none" xmlns="http://www.w3.org/2000/svg">
<path d="M0 0H128V128H0V0Z" fill="#017ACB"/>
<path d="M61.46 47.4H67.6V58H51V105.16L50.56 105.28C49.96 105.44 42.0599 105.44 40.3599 105.26L38.9999 105.14V58H22.3999V47.4L27.6599 47.34C30.5399 47.3 37.9399 47.3 44.0999 47.34C50.26 47.38 58.06 47.4 61.46 47.4V47.4ZM108.32 100.16C105.88 102.74 103.26 104.18 98.9 105.36C97 105.88 96.68 105.9 92.4 105.88C88.12 105.86 87.78 105.86 85.7 105.32C80.32 103.94 75.98 101.24 73.02 97.42C72.18 96.34 70.8 94.1 70.8 93.82C70.8 93.74 71 93.56 71.26 93.44C71.52 93.32 72.06 92.98 72.5 92.72C72.94 92.46 73.74 91.98 74.28 91.7C74.82 91.42 76.38 90.5 77.74 89.68C79.1 88.86 80.34 88.2 80.48 88.2C80.62 88.2 80.88 88.48 81.08 88.82C82.28 90.84 85.08 93.42 87.06 94.3C88.28 94.82 90.98 95.4 92.28 95.4C93.48 95.4 95.68 94.88 96.86 94.34C98.12 93.76 98.76 93.18 99.52 92.02C100.04 91.2 100.1 90.98 100.08 89.42C100.08 87.98 100 87.58 99.6 86.92C98.48 85.08 96.96 84.12 90.8 81.4C84.44 78.58 81.58 76.9 79.26 74.64C77.54 72.96 77.2 72.5 76.12 70.4C74.72 67.7 74.54 66.82 74.52 62.8C74.5 59.98 74.56 59.06 74.86 58.1C75.28 56.66 76.64 53.88 77.26 53.18C78.54 51.68 79 51.22 79.9 50.48C82.62 48.24 86.86 46.76 90.92 46.62C91.38 46.62 92.9 46.7 94.32 46.8C98.4 47.14 101.18 48.14 103.86 50.28C105.88 51.88 108.94 55.64 108.64 56.14C108.44 56.44 100.46 61.76 99.94 61.92C99.62 62.02 99.4 61.9 98.96 61.38C96.24 58.12 95.14 57.42 92.5 57.26C90.62 57.14 89.62 57.36 88.36 58.2C87.04 59.08 86.4 60.42 86.4 62.28C86.42 65 87.46 66.28 91.3 68.18C93.78 69.4 95.9 70.4 96.06 70.4C96.3 70.4 101.44 72.96 102.78 73.76C109.02 77.42 111.56 81.18 112.22 87.66C112.7 92.54 111.32 97 108.32 100.16V100.16Z" fill="white"/>
</svg>
