<svg width="128" height="128" viewBox="0 0 128 128" fill="none" xmlns="http://www.w3.org/2000/svg">
<path fill-rule="evenodd" clip-rule="evenodd" d="M76.0107 44H106.005C106.475 44 106.944 44.032 107.392 44.096L76.0853 75.4027C76.0184 74.9345 75.9846 74.4622 75.984 73.9893V44H63.984V73.9893C63.9833 76.8786 64.5519 79.7397 65.6572 82.4092C66.7626 85.0787 68.3831 87.5042 70.4261 89.5472C72.4691 91.5903 74.8947 93.2108 77.5641 94.3161C80.2336 95.4215 83.0947 95.99 85.984 95.9893H115.979V83.9893H85.984C85.504 83.9893 85.0293 83.9573 84.5707 83.8933L115.899 52.56C115.968 53.0369 116.004 53.5181 116.005 54V83.9893H128V53.9947C128 51.1063 127.431 48.2462 126.326 45.5777C125.22 42.9092 123.6 40.4845 121.558 38.4421C119.516 36.3997 117.091 34.7796 114.422 33.6742C111.754 32.5689 108.894 32 106.005 32H76.0107V44ZM0 40V40.032L40.992 92.2347C45.92 98.5067 55.9947 95.024 55.9947 87.0453V40H44V76.64L15.232 40H0Z" fill="white"/>
</svg>
