<svg width="128" height="128" viewBox="0 0 128 128" fill="none" xmlns="http://www.w3.org/2000/svg">
<path d="M1.21781 45.4379C1.21781 45.4379 -1.89979 43.1906 1.84133 40.1899L10.5576 32.3959C10.5576 32.3959 13.0517 29.7719 15.6887 32.0582L96.1228 92.9554V122.157C96.1228 122.157 96.0838 126.742 90.1993 126.236L1.21781 45.4379Z" fill="#2489CA"/>
<path d="M21.9499 64.2606L1.21782 83.1091C1.21782 83.1091 -0.912539 84.6939 1.21782 87.5257L10.8434 96.281C10.8434 96.281 13.1297 98.7361 16.5071 95.9432L38.4862 79.2771L21.9499 64.2606Z" fill="#1070B3"/>
<path d="M58.3481 64.4164L96.3699 35.3836L96.1231 6.33791C96.1231 6.33791 94.4993 -0.00123291 89.0825 3.29824L38.4863 49.3479L58.3481 64.4164Z" fill="#0877B9"/>
<path d="M90.1997 126.275C92.408 128.535 95.0839 127.795 95.0839 127.795L124.714 113.194C128.507 110.609 127.975 107.401 127.975 107.401V20.2115C127.975 16.3794 124.052 15.0544 124.052 15.0544L98.3704 2.67492C92.7587 -0.793415 89.0825 3.29844 89.0825 3.29844C89.0825 3.29844 93.8109 -0.104943 96.1231 6.33811V121.625C96.1231 122.417 95.9542 123.196 95.6165 123.898C94.941 125.262 93.4731 126.535 89.9529 126.002L90.1997 126.275Z" fill="#3C99D4"/>
</svg>
